# xmcd
#
# Track frame offsets:
#	150
#	15922
#	35199
#	52799
#	68158
#	84437
#	102574
#	119424
#	139734
#	164712
#	182547
#	200799
#	217333
#
# Disc length: 3111 seconds
#
# Revision: 0
# Processed by: cddbd v1.4PL0 Copyright (c) Steve Scherf et al.
# Submitted via: audiograbber 1.80.04
#
DISCID=c00c250d
DTITLE=Leann Rimes - Twisted Angel 
DYEAR=2002
DGENRE=Country
TTITLE0=Life Goes On 
TTITLE1=Wound Up 
TTITLE2=The Safest Place
TTITLE3=Trouble With Goodbye 
TTITLE4=Damn
TTITLE5=Suddenly
TTITLE6=Tic Toc
TTITLE7=Sign Of Life
TTITLE8=Review My Kisses 
TTITLE9=No Way Out
TTITLE10=Love Is An Army 
TTITLE11=You Made Me Find Myself
TTITLE12=Twisted Angel
EXTD=
EXTT0=
EXTT1=
EXTT2=
EXTT3=
EXTT4=
EXTT5=
EXTT6=
EXTT7=
EXTT8=
EXTT9=
EXTT10=
EXTT11=
EXTT12=
PLAYORDER=
